<svg xmlns="http://www.w3.org/2000/svg" viewBox="0 0 208.92 13.36"><defs><style>.cls-1{fill:#fff;}</style></defs><g id="Layer_2" data-name="Layer 2"><g id="Visa"><path id="_1" data-name=" 1" class="cls-1" d="M15.75,2.91a6.33,6.33,0,0,1,2,.3,8.23,8.23,0,0,1-.24,1.64,3,3,0,0,0-2.54-.13.49.49,0,0,0-.24.54c.08.39.65.6,1,.77.73.37,2,1,1.78,2.28-.25,1.59-1.24,2.14-2.83,2.4a4.3,4.3,0,0,1-1.34,0c-.53-.09-1-.25-1.46-.35.1-.57.19-1.13.28-1.69h0A3.68,3.68,0,0,0,15,9a.63.63,0,0,0,.45-.71c-.12-.58-1-.77-1.44-1a3.52,3.52,0,0,1-.92-.74c-1.11-1.43.2-2.92,1.36-3.37a5.23,5.23,0,0,1,.95-.22Zm-5.16,7.72h-2L9.86,3h2ZM7,3.05H9L5.93,10.63H3.85L2.1,4A6,6,0,0,1,4.77,7L5,8.2H5l0,0Q6,5.62,7,3.05Zm15.62,7.6L22.36,9.5l-2.57,0-.39,1.13h-2l2-4.73.71-1.69a3.76,3.76,0,0,1,.39-.86c.3-.39,1-.32,1.71-.32.17,0,.57,0,.67,0,.53,2.52,1.06,5.05,1.6,7.57ZM21.42,5.1l-1,2.84H22v0l-.6-2.8Z"/><path id="_2" data-name=" 2" class="cls-1" d="M3.86,2.85c.32.2.47,1.87.86,3.73A6.65,6.65,0,0,0,0,2.76C.79,2.68,3.11,2.39,3.86,2.85Z"/><path id="_2-2" data-name=" 2" class="cls-1" d="M182.89,6.9h-1.08V6.77c.13,0,.27,0,.32-.06a.65.65,0,0,0,0-.24V4.19c0-.21,0-.57-.07-.66a.5.5,0,0,0-.2-.08.25.25,0,0,0,0-.08l.15-.06a2.07,2.07,0,0,0,.34-.15s.13-.08.16-.05a6.54,6.54,0,0,1,0,.78V6a3.07,3.07,0,0,0,0,.76c0,.07.19,0,.31,0V6.9ZM186,3.1s0,0,0,0a.25.25,0,0,1,0,.12V5a1.31,1.31,0,0,1,.37-.26.83.83,0,0,1,.58-.08,1.11,1.11,0,0,1,.61,1.58,1.17,1.17,0,0,1-1,.74A1.32,1.32,0,0,1,186,6.9l-.23-.1-.14.12-.11-.06a7.67,7.67,0,0,0,.07-1.27V4.39c0-.23,0-.73-.06-.85a.4.4,0,0,0-.21-.09.19.19,0,0,1,0-.08A3.33,3.33,0,0,0,186,3.1Zm-5.61.25a2.94,2.94,0,0,1,.93.17l.28.1c0,.23,0,.47,0,.71h-.12a.91.91,0,0,0-.73-.78l-.25,0a1.31,1.31,0,0,0-.58.09,1.37,1.37,0,0,0-.88,1c0,.14,0,.29,0,.43a1.26,1.26,0,0,0,0,.43,1.64,1.64,0,0,0,1,1.26A1,1,0,0,0,181.52,6l.12,0-.12.72a2.27,2.27,0,0,1-.56.2,2,2,0,0,1-2.06-.58,1.83,1.83,0,0,1,.81-2.86,2.33,2.33,0,0,1,.44-.1Zm-11.8,0a.24.24,0,0,1,.24.25.25.25,0,0,1-.21.24.28.28,0,0,1-.15,0,.24.24,0,0,1-.07-.33.2.2,0,0,1,.08-.08l.11,0Zm-4.16.06h1.39a2.07,2.07,0,0,1,.43,0,1.86,1.86,0,0,1,1.36.8,1.54,1.54,0,0,1,.27.72.65.65,0,0,1,0,.24,1.41,1.41,0,0,1-.05.35,1.72,1.72,0,0,1-1.6,1.32,2.13,2.13,0,0,1-.44,0h-1.37V6.77c.16,0,.34,0,.4-.13a1.76,1.76,0,0,0,.06-.71V4.35a1.43,1.43,0,0,0-.07-.68c-.07-.1-.21-.11-.39-.11V3.43Zm1,.18V5.73c0,.27,0,.7.08.86s.73.17,1,.07a1.34,1.34,0,0,0,.85-1.1,1.6,1.6,0,0,0,0-.44v-.2a1.84,1.84,0,0,0-.17-.55,1.5,1.5,0,0,0-1.22-.78,5.33,5.33,0,0,0-.56,0Zm3.76,3.16V6.9h-1.07V6.77c.11,0,.25,0,.3,0a1.49,1.49,0,0,0,0-.53V5.47a1.09,1.09,0,0,0,0-.4.53.53,0,0,0-.23-.16V4.83h0l.48-.16s.14-.07.17,0a3.38,3.38,0,0,1,0,.45V6.28c0,.13,0,.38,0,.45s.19,0,.3,0Zm2.66.13h-1.07V6.77c.11,0,.25,0,.3,0A2.73,2.73,0,0,0,171,6V5.52c0-.34,0-.52-.28-.6a.72.72,0,0,0-.41,0,1.33,1.33,0,0,0-.35.19V6.29c0,.13,0,.37,0,.44s.19,0,.3,0V6.9h-1.07V6.77h0c.1,0,.24,0,.29,0s0-.27,0-.39V5.5a1.35,1.35,0,0,0,0-.35.39.39,0,0,0-.21-.17l-.06,0v-.1a3.05,3.05,0,0,0,.51-.17.49.49,0,0,1,.17-.06A2.29,2.29,0,0,1,170,5c.14-.1.29-.19.44-.28a.74.74,0,0,1,.87.1.7.7,0,0,1,.12.35,1.79,1.79,0,0,1,0,.4V6.3c0,.13,0,.36,0,.43s.19,0,.3,0h0V6.9Zm1-2.27a.8.8,0,0,1,.81.48s.09.35.05.39-.27,0-.37,0h-1.09c-.07.73.44,1.44,1.13,1a1.06,1.06,0,0,0,.29-.22h0l.07.06a1.43,1.43,0,0,1-.59.5.93.93,0,0,1-1-.24,1.25,1.25,0,0,1-.2-.4,1.35,1.35,0,0,1,0-.53,1.17,1.17,0,0,1,.6-1,.71.71,0,0,1,.28-.09Zm1.75.51h0A.83.83,0,0,0,174.6,5a.86.86,0,0,1,.43-.37c.21-.07.45,0,.42.27a.25.25,0,0,1-.25.23l-.07,0c-.08,0-.13-.12-.26-.1a.36.36,0,0,0-.28.18.3.3,0,0,0-.07.15,1.82,1.82,0,0,0,0,.33v.66c0,.11,0,.31,0,.37s.35,0,.49,0V6.9h-1.3V6.77c.12,0,.29,0,.34,0s0-.27,0-.39V5.46a.86.86,0,0,0,0-.32c0-.09-.16-.1-.25-.15V4.91l.15-.06.33-.16s.13-.08.16-.05a2,2,0,0,1,0,.5Zm1.86-.51a1.1,1.1,0,0,1,.59.14l0,.51h-.12a.51.51,0,0,0-.37-.47c-.29-.08-.61.06-.56.36.07.5,1,.39,1.15,1a.64.64,0,0,1,0,.36.93.93,0,0,1-1.16.38,1,1,0,0,1-.27-.11c0-.19,0-.38,0-.57l.09,0a.72.72,0,0,0,.42.57c.3.11.58,0,.62-.28s-.38-.48-.6-.58a1,1,0,0,1-.28-.17.63.63,0,0,1-.05-.89l.06-.06a.86.86,0,0,1,.38-.16Zm7.84.14.24,0,.38,0s.18,0,.2,0a.24.24,0,0,1,0,.12V6.21c0,.1,0,.46,0,.49s.23,0,.31,0v.1l-.52.1-.2.06,0,0v-.4l-.16.12a1.81,1.81,0,0,1-.29.19.75.75,0,0,1-.33.1.52.52,0,0,1-.64-.4s0-.05,0-.07a2.41,2.41,0,0,1,0-.38V5.4a1.28,1.28,0,0,0,0-.45.36.36,0,0,0-.27-.12V4.74h0a5.65,5.65,0,0,1,.69,0,2.57,2.57,0,0,1,0,.48v.69c0,.44,0,.77.38.82a.91.91,0,0,0,.58-.24l.08-.06v-1a1.22,1.22,0,0,0,0-.33c-.05-.08-.3-.15-.41-.17V4.77Zm-11.47,0-.19,0a.69.69,0,0,0-.37.55h.91l.07,0c.06,0,0-.19,0-.25a.4.4,0,0,0-.43-.3Zm13.75.11h-.1a.77.77,0,0,0-.29.17.18.18,0,0,0-.07,0v1a1.69,1.69,0,0,0,0,.23.52.52,0,0,0,.24.37.46.46,0,0,0,.3.08.9.9,0,0,0,.27-.07,1,1,0,0,0,.43-1.15,1,1,0,0,0-.35-.56.64.64,0,0,0-.44-.17ZM168.75,8.14V9.29c0,.15,0,.37.05.45a.32.32,0,0,0,.23,0v.1h-.93v-.1a.4.4,0,0,0,.24,0c.07-.09,0-.31,0-.45V8.14a1.9,1.9,0,0,0-.6,0,.34.34,0,0,0-.08.21h-.11a3.5,3.5,0,0,0,.06-.48h.08v0a.1.1,0,0,0,.09.06H169a1.28,1.28,0,0,0,.4,0,.09.09,0,0,0,0-.07h.09l0,.23a1.77,1.77,0,0,1,0,.23l-.1,0c0-.23-.07-.26-.31-.26Zm9.48,0V9.3c0,.15,0,.36.05.44a.37.37,0,0,0,.23,0v.1h-.93v-.1a.34.34,0,0,0,.24,0c.07-.08,0-.3,0-.44V8.14c-.15,0-.55,0-.62,0a.66.66,0,0,0-.06.2h-.11a2.61,2.61,0,0,0,.05-.48h.09c0,.11.2.08.34.08h1c.12,0,.37,0,.37-.09H179c0,.15,0,.3,0,.45l-.1,0c0-.23-.08-.26-.31-.26Zm-.91,1.65v.1h-.81v-.1a.27.27,0,0,0,.19,0,2.3,2.3,0,0,0-.15-.52H176c0,.08-.18.46-.14.51a.37.37,0,0,0,.23,0v.1h-.65v-.1c.26,0,.27-.23.34-.42l.4-1.14.06-.2a1.48,1.48,0,0,1,.29-.12,3.42,3.42,0,0,1,.13.34l.36,1a1.57,1.57,0,0,0,.2.49.33.33,0,0,0,.15,0Zm8.9,0v.1h-.81v-.1a.25.25,0,0,0,.19,0,2,2,0,0,0-.15-.52h-.6a1.42,1.42,0,0,1-.07.22c-.06.2-.18.35.16.35v.1h-.65v-.1c.27,0,.28-.25.35-.44l.34-1a2.25,2.25,0,0,0,.08-.24l0-.11c.06,0,.26-.13.29-.12a1.58,1.58,0,0,1,.13.34l.36,1a1.74,1.74,0,0,0,.2.5.4.4,0,0,0,.15,0ZM181,7.94a1,1,0,0,1,1,1.43,1.08,1.08,0,0,1-1.21.53.94.94,0,0,1-.76-.84,1.17,1.17,0,0,1,.07-.49,1,1,0,0,1,.65-.59l.17,0ZM164.39,8h.86v.1a.25.25,0,0,0-.22.06.82.82,0,0,0,0,.35v.87a1.17,1.17,0,0,0,0,.38.33.33,0,0,0,.22,0v.1h-.86v-.1a.29.29,0,0,0,.22-.06,1.09,1.09,0,0,0,0-.37V8.49a.82.82,0,0,0,0-.35.25.25,0,0,0-.22-.06V8Zm8.76,1.91h-.55l-.23-.33c-.12-.18-.22-.36-.33-.55h-.17c0,.18,0,.68.06.74a.34.34,0,0,0,.22,0v.1h-.89v-.1a.26.26,0,0,0,.22-.07,1.65,1.65,0,0,0,0-.46v-.7c0-.14,0-.35,0-.43a.24.24,0,0,0-.2-.05V8h.65a1.14,1.14,0,0,1,.71.11.41.41,0,0,1,.17.27.52.52,0,0,1-.37.59c.07.09.13.19.2.29l.21.31a1,1,0,0,0,.13.18.42.42,0,0,0,.19.06v.1Zm0-1.91h.58L175,9.32v-1a.36.36,0,0,0,0-.11.28.28,0,0,0-.26-.09V8h.74v.1a.27.27,0,0,0-.21.06c-.09.1-.07.33-.07.52a10.77,10.77,0,0,0,0,1.27H175l-.32-.36L173.65,8.4v1c0,.13,0,.29,0,.36a.36.36,0,0,0,.25.06v.1h-.75v-.1a.3.3,0,0,0,.23-.07,1.09,1.09,0,0,0,.06-.53V8.54a.8.8,0,0,0,0-.34.25.25,0,0,0-.25-.12V8Zm-7.87,0h.58l1.19,1.34v-1a.28.28,0,0,0,0-.12.27.27,0,0,0-.25-.08V8h.74v.1a.29.29,0,0,0-.22.06c-.09.11-.07.33-.07.52,0,.42,0,.88,0,1.27h-.13l-.32-.36L165.77,8.4v1c0,.13,0,.29.06.36a.36.36,0,0,0,.25.06v.1h-.75v-.1a.29.29,0,0,0,.22-.07c.09-.11.06-.35.06-.54V8.55a.74.74,0,0,0,0-.36.27.27,0,0,0-.25-.11V8Zm4.25,0H171c0,.14,0,.29,0,.43l-.11,0h0c0-.39-.31-.32-.68-.32v.69c.29,0,.5,0,.51-.24h.11c0,.21,0,.44,0,.65l-.11,0c0-.34-.19-.28-.51-.28v.46a.74.74,0,0,0,0,.21.14.14,0,0,0,.05.08.46.46,0,0,0,.26,0c.26,0,.43,0,.51-.2a.65.65,0,0,0,0-.13l.1,0c0,.15-.06.29-.1.44h-1.48v-.1a.33.33,0,0,0,.22,0,1.15,1.15,0,0,0,0-.38V8.49a.82.82,0,0,0,0-.35.25.25,0,0,0-.22-.06V8Zm9.5,0h.85v.1a.29.29,0,0,0-.22.06,1,1,0,0,0,0,.35v.87a1.09,1.09,0,0,0,0,.37.29.29,0,0,0,.22.06v.1h-.85v-.1a.31.31,0,0,0,.21,0c.05-.06,0-.27,0-.38V8.49a1,1,0,0,0,0-.35.26.26,0,0,0-.22-.06V8Zm3,0h.58l1.19,1.34V8.27a.36.36,0,0,0,0-.11.29.29,0,0,0-.25-.08V8h.74v.1a.28.28,0,0,0-.23.07c-.08.1-.06.33-.06.52v.72c0,.18,0,.36,0,.54h-.13l-.32-.36L182.55,8.4v1c0,.13,0,.29,0,.36a.39.39,0,0,0,.25.06v.1h-.74v-.1a.27.27,0,0,0,.22-.08c.08-.1.06-.34.06-.53V8.54a.71.71,0,0,0,0-.35.27.27,0,0,0-.25-.11V8Zm4.18,0h.87v.1c-.09,0-.19,0-.23,0a1,1,0,0,0,0,.36v.88c0,.1,0,.27,0,.34s.19.06.31.06c.32,0,.45-.1.52-.35h.1l-.11.48h-1.46v-.1a.29.29,0,0,0,.22-.06,1,1,0,0,0,0-.36V8.51a1.15,1.15,0,0,0,0-.38.33.33,0,0,0-.22-.05V8Zm-5.31.1a.86.86,0,0,0-.17,0,.57.57,0,0,0-.38.43c-.15.54.11,1.32.68,1.25a.64.64,0,0,0,.34-.14.75.75,0,0,0,.19-.47c.09-.55-.15-1.1-.66-1.1Zm-9.11.81c.21,0,.38,0,.46-.12a.44.44,0,0,0,.07-.27.32.32,0,0,0,0-.19c-.07-.18-.24-.22-.5-.2v.78Zm4.38-.57-.24.73h.47Zm8.9,0-.24.73h.48l-.24-.73Z"/><path class="cls-1" d="M163.29,6a4.34,4.34,0,0,0-.21-.88,4.82,4.82,0,0,0-.88-1.5,3.47,3.47,0,0,0-.59-.56A5.14,5.14,0,0,0,159.16,2a10.24,10.24,0,0,0-1.36-.06h-1.88l-.32,0a4.9,4.9,0,0,0-.85.16A4.61,4.61,0,0,0,152,4.18a4.77,4.77,0,0,0-.57,1.45,4.74,4.74,0,0,0,3.8,5.7,6.51,6.51,0,0,0,1.32.08h1.28c.32,0,.63,0,.94,0,.15,0,.31,0,.45-.06a5,5,0,0,0,1.46-.49,6.32,6.32,0,0,0,.56-.33,4.87,4.87,0,0,0,2-2.76A4.38,4.38,0,0,0,163.29,6Zm-2.81,1a5,5,0,0,1-.31,1.27,4.33,4.33,0,0,1-3,2.58c-.22,0-.44.08-.66.11h-.35a2.16,2.16,0,0,1-.44,0,4.8,4.8,0,0,1-1.34-.34A4.3,4.3,0,0,1,152,7.94,4.3,4.3,0,0,1,153.74,3a4.6,4.6,0,0,1,1-.5,6.16,6.16,0,0,1,.83-.18l.31,0h.16a4.31,4.31,0,0,1,2,.48c.17.09.33.19.49.29a4.39,4.39,0,0,1,1.58,2,4.77,4.77,0,0,1,.27,1c0,.15,0,.31,0,.47A3.05,3.05,0,0,1,160.48,7Z"/><path class="cls-1" d="M155.14,4.1V9.23a2.68,2.68,0,0,1-1.71-2,2.57,2.57,0,0,1,0-1.07,3.28,3.28,0,0,1,.18-.61,2.73,2.73,0,0,1,1.13-1.27l.28-.14.14-.06Z"/><path class="cls-1" d="M157.12,4.1l.18.08a2.34,2.34,0,0,1,.54.34,2.73,2.73,0,0,1,.48,3.83,2.7,2.7,0,0,1-.79.68,1.42,1.42,0,0,1-.41.2V4.1Z"/><path id="_1-2" data-name=" 1" class="cls-1" d="M114.58,2.18H116c0,2.39,0,4.79,0,7.18l1.21.53-.56,1.39-.43-.17c-.64-.24-1.26-.45-1.53-1.06a3.44,3.44,0,0,1-.11-1.21c0-.43,0-.85,0-1.28C114.59,5.77,114.58,4,114.58,2.18ZM110.1,3.87a3.7,3.7,0,0,1,3.78,2.85l-6.75,2.86a3.35,3.35,0,0,1-.49-1.1,3.65,3.65,0,0,1,2.14-4.35,5,5,0,0,1,.84-.22Zm-9.49,0a5.48,5.48,0,0,1,1.61.26h0l-.6,1.4a2.44,2.44,0,0,0-1.17-.15,2.21,2.21,0,1,0,.86,4.33,2.65,2.65,0,0,0,.76-.36l.27-.22,1,1.09h0a4.13,4.13,0,0,1-1.64.9,3.9,3.9,0,0,1-1.52.09,3.55,3.55,0,0,1-2.92-2.4,3.71,3.71,0,0,1-.12-2.26,4.06,4.06,0,0,1,.43-1A3.61,3.61,0,0,1,99.73,4a3.78,3.78,0,0,1,.57-.1Zm4.92,7.25h-1.42l0-4.63L102.85,6l.61-1.38h0l.54.19a2.54,2.54,0,0,1,1.36.91,4,4,0,0,1,.19,1.79c0,1.22,0,2.44,0,3.66Zm4.62-5.77h-.24A2.25,2.25,0,0,0,108,7.82l3.87-1.65-.28-.29a2.09,2.09,0,0,0-1.45-.52Zm7.68.59,1.41.69h0a2.12,2.12,0,0,0,1.32,3,2.08,2.08,0,0,0,1.9-.23,1,1,0,0,0,.24-.21h0l1,1.11a4.44,4.44,0,0,1-1.89.9A3.65,3.65,0,0,1,117.7,8.8a4.06,4.06,0,0,1,.13-2.86Zm-6.08,3.18,1.11,1.1a3.81,3.81,0,0,1-3.3,1,6.68,6.68,0,0,1-1.31-.5L109,9.42a2.23,2.23,0,0,0,2.3,0,1.86,1.86,0,0,0,.41-.33Z"/><path id="_2-3" data-name=" 2" class="cls-1" d="M121.06,3.87a3.69,3.69,0,0,1,3.74,2.61A3.84,3.84,0,0,1,124.91,8a4.38,4.38,0,0,1-.17.8l-.15.42h0l-1.38-.65a2.21,2.21,0,0,0-1.06-2.95,2,2,0,0,0-1.07-.19,2.26,2.26,0,0,0-1,.31l-.37.27-1-1.14A3.94,3.94,0,0,1,120.35,4l.45-.08Z"/><path id="_3" data-name=" 3" class="cls-1" d="M104.78,2.07a1,1,0,1,1,.08,2,1,1,0,0,1-1-1.33,1,1,0,0,1,.68-.63Z"/><rect class="cls-1" x="194.05" y="2.26" width="0.27" height="8.83"/><rect class="cls-1" x="198.47" y="2.26" width="0.27" height="7.21"/><rect class="cls-1" x="196.17" y="2.26" width="0.26" height="8.83"/><rect class="cls-1" x="201.31" y="2.26" width="0.27" height="7.21"/><rect class="cls-1" x="198.94" y="2.26" width="0.26" height="7.21"/><rect class="cls-1" x="199.59" y="2.26" width="0.27" height="7.21"/><rect class="cls-1" x="204.02" y="2.26" width="0.27" height="7.21"/><rect class="cls-1" x="205.67" y="2.26" width="0.27" height="8.83"/><rect class="cls-1" x="197.74" y="2.26" width="0.27" height="8.83"/><rect class="cls-1" x="204.63" y="2.26" width="0.52" height="8.83"/><rect class="cls-1" x="201.85" y="2.26" width="0.52" height="7.21"/><rect class="cls-1" x="203.57" y="2.26" width="0.33" height="7.21"/><rect class="cls-1" x="196.69" y="2.26" width="0.54" height="8.83"/><rect class="cls-1" x="194.71" y="2.26" width="0.53" height="8.83"/><rect class="cls-1" x="202.64" y="2.26" width="0.13" height="7.21"/><rect class="cls-1" x="200.99" y="2.26" width="0.13" height="7.21"/><rect class="cls-1" x="200.65" y="2.26" width="0.14" height="7.21"/><polygon class="cls-1" points="200.33 2.26 200.45 2.26 200.45 9.47 200.33 9.47 200.33 2.26 200.33 2.26"/><rect class="cls-1" x="203.3" y="2.26" width="0.13" height="7.21"/><rect class="cls-1" x="206.4" y="2.26" width="0.13" height="8.83"/><rect class="cls-1" x="195.43" y="2.26" width="0.14" height="8.83"/><rect class="cls-1" x="198.14" y="2.26" width="0.14" height="8.83"/><rect class="cls-1" x="197.42" y="2.26" width="0.13" height="8.83"/><rect class="cls-1" x="205.35" y="2.26" width="0.13" height="8.83"/><rect class="cls-1" x="206.73" y="2.26" width="0.14" height="8.83"/><rect class="cls-1" x="207.07" y="2.26" width="0.13" height="8.83"/><rect class="cls-1" x="207.59" y="2.26" width="0.27" height="8.83"/><rect class="cls-1" x="208.13" y="2.26" width="0.27" height="8.83"/><rect class="cls-1" x="208.65" y="2.26" width="0.27" height="8.83"/><path id="BOLETO_" data-name="BOLETO " class="cls-1" d="M199,10.89a.48.48,0,0,0,.31-.08.32.32,0,0,0,.11-.24.27.27,0,0,0-.06-.17.24.24,0,0,0-.16-.09.27.27,0,0,0,.12-.09.23.23,0,0,0,0-.14.24.24,0,0,0-.11-.23.55.55,0,0,0-.31-.08h-.37v1.12Zm0-.49a.18.18,0,0,1,.14,0,.15.15,0,0,1,.05.13.13.13,0,0,1-.05.11.23.23,0,0,1-.14,0h-.21V10.4Zm-.21-.45H199a.21.21,0,0,1,.15,0,.17.17,0,0,1,0,.12.12.12,0,0,1,0,.1.25.25,0,0,1-.14,0h-.16Zm1.71.28a.45.45,0,0,0-.44-.47h0a.45.45,0,0,0-.47.47v.2a.43.43,0,0,0,.13.34.5.5,0,0,0,.68,0,.43.43,0,0,0,.13-.34v-.2Zm-.22.2a.34.34,0,0,1-.07.22.25.25,0,0,1-.34,0l0,0a.34.34,0,0,1-.07-.22v-.2a.31.31,0,0,1,.07-.21.23.23,0,0,1,.36,0,.31.31,0,0,1,.07.21v.2Zm.63-.66h-.23v1.12h.74v-.17h-.51v-1Zm1.31.46h-.42V10h.5V9.77h-.73v1.12h.73v-.17h-.5V10.4h.42v-.17Zm1-.46h-.88V10h.32v.94H203V10h.33V9.77Zm1,.46a.46.46,0,0,0-.44-.47h0a.43.43,0,0,0-.34.13.48.48,0,0,0-.13.34v.2a.47.47,0,0,0,.13.34.49.49,0,0,0,.34.14.47.47,0,0,0,.48-.44v-.24Zm-.23.2a.33.33,0,0,1-.06.22.21.21,0,0,1-.19.08.19.19,0,0,1-.18-.08.33.33,0,0,1-.06-.22v-.2a.31.31,0,0,1,.06-.21.21.21,0,0,1,.18-.09A.25.25,0,0,1,204,10a.31.31,0,0,1,.06.21Z"/><path class="cls-1" d="M58.47,6.38c-.1.67-.61.67-1.11.67h-.28l.19-1.25a.16.16,0,0,1,.16-.13h.13c.34,0,.66,0,.82.19a.6.6,0,0,1,.09.52m-.22-1.75H56.38a.25.25,0,0,0-.25.22l-.76,4.8a.16.16,0,0,0,.13.18h1a.18.18,0,0,0,.18-.16l.22-1.36a.27.27,0,0,1,.25-.22h.6a1.92,1.92,0,0,0,2.13-1.78,1.45,1.45,0,0,0-.24-1.2,1.73,1.73,0,0,0-1.37-.48"/><path class="cls-1" d="M45.12,6.38c-.1.67-.62.67-1.11.67h-.29l.2-1.25a.15.15,0,0,1,.16-.13h.13c.33,0,.65,0,.82.19a.6.6,0,0,1,.09.52M44.9,4.63H43a.26.26,0,0,0-.26.22L42,9.65a.16.16,0,0,0,.13.18h.91a.27.27,0,0,0,.26-.22l.21-1.3a.26.26,0,0,1,.25-.22h.6a1.92,1.92,0,0,0,2.13-1.78,1.45,1.45,0,0,0-.24-1.2,1.73,1.73,0,0,0-1.37-.48M49.25,8.1a1,1,0,0,1-1,.86.69.69,0,0,1-.75-.87,1,1,0,0,1,1-.86.77.77,0,0,1,.6.24.79.79,0,0,1,.15.63M50.5,6.36h-.9a.14.14,0,0,0-.15.13l0,.25-.06-.09a1.3,1.3,0,0,0-1.06-.38,2.07,2.07,0,0,0-2,1.81,1.69,1.69,0,0,0,.33,1.38,1.4,1.4,0,0,0,1.13.45A1.71,1.71,0,0,0,49,9.4l0,.25a.16.16,0,0,0,.13.18h.83a.27.27,0,0,0,.26-.22l.48-3.07a.15.15,0,0,0-.13-.18h0"/><path class="cls-1" d="M62.6,8.1a1,1,0,0,1-1,.86.74.74,0,0,1-.6-.24.71.71,0,0,1-.14-.63,1,1,0,0,1,1-.86.7.7,0,0,1,.75.87m1.25-1.74H63a.15.15,0,0,0-.15.13l0,.25-.06-.09a1.3,1.3,0,0,0-1.06-.38,2.07,2.07,0,0,0-2,1.81A1.69,1.69,0,0,0,60,9.46a1.42,1.42,0,0,0,1.13.45,1.71,1.71,0,0,0,1.24-.51l0,.25a.17.17,0,0,0,.13.18h.83a.27.27,0,0,0,.26-.22L64,6.54a.15.15,0,0,0-.13-.18h0"/><path class="cls-1" d="M55.27,6.36h-.9a.24.24,0,0,0-.21.11L52.91,8.3l-.52-1.76a.27.27,0,0,0-.25-.18h-.89a.16.16,0,0,0-.15.16v.05l1,2.91-.94,1.31a.16.16,0,0,0,.13.25h.9a.24.24,0,0,0,.21-.11l3-4.33a.15.15,0,0,0,0-.21.14.14,0,0,0-.09,0"/><path class="cls-1" d="M64.91,4.76l-.77,4.89a.16.16,0,0,0,.13.18h.79a.27.27,0,0,0,.26-.22l.76-4.8A.15.15,0,0,0,66,4.63h-.89a.14.14,0,0,0-.15.13"/><path class="cls-1" d="M38.34,4.53a.88.88,0,0,1,0,.16,2.85,2.85,0,0,1-3.15,2.47h-.79a.4.4,0,0,0-.39.33l-.4,2.58-.12.74a.2.2,0,0,0,.17.23h1.44a.34.34,0,0,0,.34-.29v-.07L35.7,9l0-.1a.33.33,0,0,1,.33-.28h.21A2.49,2.49,0,0,0,39,6.46a1.83,1.83,0,0,0-.28-1.63,1.45,1.45,0,0,0-.39-.3"/><path class="cls-1" d="M38,3h0a2.71,2.71,0,0,0-2.07-.66H33.2a.39.39,0,0,0-.39.33L31.68,9.8a.24.24,0,0,0,.2.27h1.71L34,7.49h0l0-.08.45-2.87a.35.35,0,0,1,.33-.29h2.13a3.8,3.8,0,0,1,.7.06l.18,0,.17,0h0l.08,0a1.48,1.48,0,0,1,.29.12.88.88,0,0,1,0,.16,2.85,2.85,0,0,1-3.15,2.47h-.79a.4.4,0,0,0-.39.33h0a.4.4,0,0,1,.39-.33h.79a2.84,2.84,0,0,0,3.15-2.47.88.88,0,0,0,0-.16A1.74,1.74,0,0,0,38,3Z"/><g id="g3806"><path id="path3808" class="cls-1" d="M88.8,12.9v0h0v0h0Zm0,0h0l0,0v0h0l0,.05h0l0-.05h0V13h0v-.13Zm0,.17h0l0,0,0,0V12.9l0,0,0,0h-.08l0,0,0,0V13l0,0,0,0h0m0-.24h.05l0,0,0,0s0,0,0,.06A.43.43,0,0,0,89,13l0,0,0,0h-.1l0,0,0,0a.43.43,0,0,0,0-.05s0,0,0-.06l0,0,0,0h0m-12.58-.48a.41.41,0,1,1,.81,0,.41.41,0,1,1-.81,0m1.09,0v-.67H77v.16a.53.53,0,0,0-.43-.19.71.71,0,0,0,0,1.41.51.51,0,0,0,.43-.2V13h.29Zm9.91,0a.41.41,0,1,1,.81,0,.41.41,0,1,1-.81,0m1.09,0V11.11H88v.7a.53.53,0,0,0-.43-.19.71.71,0,0,0,0,1.41.51.51,0,0,0,.43-.2V13h.29ZM81,11.88a.33.33,0,0,1,.34.32h-.7a.34.34,0,0,1,.36-.32m0-.26a.66.66,0,0,0-.68.7A.67.67,0,0,0,81,13a.82.82,0,0,0,.55-.19l-.15-.21a.62.62,0,0,1-.39.14.37.37,0,0,1-.4-.33h1s0-.08,0-.12a.65.65,0,0,0-.64-.7m3.54.7a.41.41,0,1,1,.81,0,.41.41,0,1,1-.81,0m1.09,0v-.67h-.29v.16a.53.53,0,0,0-.43-.19.71.71,0,0,0,0,1.41.51.51,0,0,0,.43-.2V13h.29Zm-2.75,0a.69.69,0,0,0,.72.71.71.71,0,0,0,.49-.16l-.15-.24a.57.57,0,0,1-.35.12.43.43,0,0,1,0-.86.57.57,0,0,1,.35.12l.15-.23a.71.71,0,0,0-.49-.16.68.68,0,0,0-.72.7m3.78-.7a.37.37,0,0,0-.35.19v-.16H86V13h.3v-.76c0-.22.09-.35.29-.35a.39.39,0,0,1,.18,0l.09-.28-.21,0m-7.86.14a.94.94,0,0,0-.55-.14c-.34,0-.56.16-.56.43s.16.35.46.39l.14,0c.16,0,.24.07.24.15s-.11.16-.31.16a.77.77,0,0,1-.45-.14l-.13.23a1,1,0,0,0,.58.17c.39,0,.61-.18.61-.44s-.17-.36-.47-.4l-.13,0c-.13,0-.23,0-.23-.13s.09-.16.25-.16a.85.85,0,0,1,.42.11l.13-.23Zm3.78-.14a.37.37,0,0,0-.35.19v-.16h-.29V13h.29v-.76c0-.22.1-.35.29-.35a.39.39,0,0,1,.18,0l.09-.28a.76.76,0,0,0-.21,0m-2.5,0h-.48v-.41h-.29v.41H79v.27h.28v.61c0,.32.12.5.46.5a.73.73,0,0,0,.37-.1L80,12.68a.56.56,0,0,1-.26.07c-.15,0-.2-.09-.2-.22v-.61h.48v-.27ZM75.68,13v-.85a.5.5,0,0,0-.53-.53.52.52,0,0,0-.48.23.5.5,0,0,0-.44-.23.44.44,0,0,0-.4.2v-.17h-.29V13h.29v-.75a.32.32,0,0,1,.34-.36c.19,0,.29.13.29.36V13h.29v-.75a.32.32,0,0,1,.33-.36c.21,0,.3.13.3.36V13Z"/></g><g id="g3816"><path id="path3818" class="cls-1" d="M89,8.51v-.2h0l-.06.14-.06-.14h-.05v.2h0V8.36l0,.13h0l.06-.13v.15Zm-.32,0V8.35h.06v0h-.16v0h.06v.16Z"/></g><g id="g3812"><path id="path3814" class="cls-1" d="M79,5.36a5,5,0,0,1,1.94-4,5.08,5.08,0,1,0,0,8,5.06,5.06,0,0,1-1.94-4"/></g><g id="g3820"><path id="path3822" class="cls-1" d="M89.12,5.36a5.08,5.08,0,0,1-8.21,4,5.08,5.08,0,0,0,0-8,5.08,5.08,0,0,1,8.21,4"/></g><path class="cls-1" d="M134.7,5.68a1.15,1.15,0,0,0-1,1.12v0c0,.08,0,.08.09.05h0l1.85-.79c.08,0,.08,0,0-.1A1.09,1.09,0,0,0,134.7,5.68Z"/><path class="cls-1" d="M137.71,0a6.68,6.68,0,1,0,6.67,6.68A6.68,6.68,0,0,0,137.71,0ZM140,5l.32-.07h.23a1.93,1.93,0,0,1,1.88,1.45c0,.08,0,.08-.06.1l-.63.13c-.06,0-.06,0-.07,0a1.15,1.15,0,0,0-1-.84,1,1,0,0,0-.43,0h0a0,0,0,0,1-.05,0v0c-.07-.21-.14-.41-.2-.61V5S140,5,140,5Zm-3.8,3.25,0,0a2,2,0,0,1-1,.47.84.84,0,0,1-.26,0,1.89,1.89,0,0,1-1-.25c-.07,0-.07,0,0-.11l.33-.53,0,0s0,0,0,0l0,0a1,1,0,0,0,.56.14,1.08,1.08,0,0,0,.69-.25s.05-.06.08-.06.06,0,.08.07l.42.43,0,0A0,0,0,0,1,136.21,8.21Zm.5-1.82-.79.33-2.57,1.1c-.08,0-.08,0-.12,0a1.85,1.85,0,0,1-.26-1.1,1.94,1.94,0,0,1,1.59-1.78l.18,0h.15a1.91,1.91,0,0,1,1.85,1.4v0C136.76,6.36,136.76,6.36,136.71,6.39Zm1.78,1.67-.26.62c0,.05,0,.05-.07,0l-.58-.24a.7.7,0,0,1-.43-.62,1.55,1.55,0,0,1,0-.22V4.1c0-.09,0-.09.09-.09h.58s.05,0,.05,0V7.68a.08.08,0,0,0,0,.08l.37.15.18.08S138.51,8,138.49,8.06Zm1.27-.34-.42.47c-.05.06-.06.06-.11,0A1.81,1.81,0,0,1,138.66,7a1.92,1.92,0,0,1,.57-1.62s0,0,.05,0,0,0,0,0l.2.21.24.29s0,0,0,.09a1.13,1.13,0,0,0-.34.82,1.17,1.17,0,0,0,.33.79C139.8,7.66,139.82,7.65,139.76,7.72Zm2.61-.23a1.91,1.91,0,0,1-1.4,1.2,1.36,1.36,0,0,1-.4,0,1.52,1.52,0,0,1-.52-.07h0c-.05,0-.05,0,0-.08a2.25,2.25,0,0,0,.08-.24c.05-.12.09-.25.13-.37s0-.07.1,0a1.13,1.13,0,0,0,1.09-.31,1.1,1.1,0,0,0,.29-.47.09.09,0,0,1,0,0s0,0,.06,0l.22,0,.43.08h0s.05,0,0,.06A2.25,2.25,0,0,1,142.37,7.49Z"/></g></g></svg>